<?xml version="1.0" encoding="utf-8"?>
<!-- Generator: Adobe Illustrator 27.9.0, SVG Export Plug-In . SVG Version: 6.00 Build 0)  -->
<svg version="1.1" id="Layer_1" xmlns="http://www.w3.org/2000/svg" xmlns:xlink="http://www.w3.org/1999/xlink" x="0px" y="0px"
	 viewBox="0 0 247.8 98.4" style="enable-background:new 0 0 247.8 98.4;" xml:space="preserve">
<style type="text/css">
	.st0{fill:#231F20;}
</style>
<g>
	<g>
		<g>
			<path class="st0" d="M10.5,45.6c0-21.7,16.1-36.9,38.9-36.9c11.5,0,21,4.2,25.7,11.8c0.2,0.3,0.1,0.7-0.2,0.9L61.1,32.2
				c-0.3,0.3-0.8,0.2-1-0.2c-2.6-4.2-6.6-6.5-11.9-6.5c-9.8,0-16.6,7.8-16.6,18.8c0,7.2,5,12.1,12.7,12.1c4.7,0,9.2-1.9,13.3-6.6
				c0.3-0.3,0.7-0.3,1-0.1l11.2,10.7c0.3,0.3,0.3,0.7,0.1,1c-7.4,8.8-16.4,11.7-27.6,11.7C23,73.1,10.5,61.9,10.5,45.6z"/>
			<path class="st0" d="M103.1,10.1h19.4c0.4,0,0.8,0.4,0.7,0.8l-8.7,43.8c-0.1,0.4,0.2,0.8,0.7,0.8h26c0.4,0,0.8,0.4,0.7,0.8
				l-3,14.7c-0.1,0.3-0.4,0.6-0.7,0.6H91.1c-0.4,0-0.8-0.4-0.7-0.8l12-60.2C102.5,10.3,102.8,10.1,103.1,10.1z"/>
			<path class="st0" d="M235.8,11.1l-37.6,60.3c-0.1,0.2-0.4,0.3-0.6,0.3h-19.4c-0.3,0-0.6-0.2-0.7-0.6l-13.4-60.2
				c-0.1-0.4,0.2-0.9,0.7-0.9h19.9c0.3,0,0.6,0.2,0.7,0.6l7.2,33.7c0.1,0.6,1,0.8,1.3,0.2l21.2-34.1c0.1-0.2,0.4-0.3,0.6-0.3h19.5
				C235.7,10.1,236.1,10.7,235.8,11.1z"/>
		</g>
	</g>
	<g>
		<g>
			<path class="st0" d="M29.3,89.6c-0.8,0-1.5-0.1-2.1-0.4c-0.7-0.3-1.2-0.6-1.7-1.1s-0.9-1-1.1-1.7c-0.3-0.6-0.4-1.3-0.4-2.1
				s0.1-1.4,0.4-2.1c0.3-0.6,0.6-1.2,1.1-1.7s1-0.8,1.7-1.1c0.6-0.3,1.4-0.4,2.1-0.4c0.7,0,1.4,0.1,2,0.4c0.6,0.2,1.2,0.6,1.6,1.1
				L32.5,81c-0.4-0.4-0.9-0.7-1.5-0.9c-0.5-0.2-1.1-0.3-1.7-0.3c-0.7,0-1.3,0.1-1.8,0.3c-0.6,0.2-1.1,0.5-1.5,1
				c-0.4,0.4-0.7,0.9-1,1.4c-0.2,0.5-0.3,1.1-0.3,1.8c0,0.6,0.1,1.2,0.3,1.8c0.2,0.5,0.6,1,1,1.4s0.9,0.7,1.5,1
				c0.6,0.2,1.2,0.3,1.8,0.3s1.2-0.1,1.7-0.3c0.5-0.2,1-0.5,1.5-0.9l0.5,0.5c-0.5,0.5-1,0.8-1.6,1.1C30.7,89.4,30,89.6,29.3,89.6z"
				/>
			<path class="st0" d="M42.5,89.6c-0.8,0-1.5-0.1-2.1-0.4c-0.7-0.3-1.2-0.6-1.7-1.1s-0.9-1-1.1-1.7c-0.3-0.6-0.4-1.3-0.4-2.1
				s0.1-1.4,0.4-2.1c0.3-0.6,0.6-1.2,1.1-1.7s1.1-0.8,1.7-1.1c0.7-0.3,1.4-0.4,2.1-0.4c0.8,0,1.5,0.1,2.1,0.4
				c0.7,0.3,1.2,0.6,1.7,1.1s0.9,1,1.1,1.7s0.4,1.3,0.4,2.1s-0.1,1.4-0.4,2.1s-0.6,1.2-1.1,1.7s-1,0.8-1.7,1.1
				C44,89.4,43.3,89.6,42.5,89.6z M42.5,88.9c0.7,0,1.3-0.1,1.8-0.3c0.6-0.2,1-0.5,1.5-1s0.7-0.9,1-1.4c0.2-0.5,0.3-1.1,0.3-1.8
				c0-0.7-0.1-1.3-0.3-1.8c-0.2-0.5-0.6-1-1-1.4c-0.4-0.4-0.9-0.7-1.5-1c-0.6-0.2-1.2-0.3-1.8-0.3c-0.7,0-1.3,0.1-1.8,0.3
				c-0.6,0.2-1,0.5-1.5,1c-0.4,0.4-0.7,0.9-1,1.4c-0.2,0.5-0.3,1.1-0.3,1.8c0,0.6,0.1,1.2,0.3,1.8c0.2,0.5,0.6,1,1,1.4
				s0.9,0.7,1.5,1C41.3,88.8,41.9,88.9,42.5,88.9z"/>
			<path class="st0" d="M53.4,89.5V79.2h3.7c0.9,0,1.6,0.1,2.2,0.4s1.1,0.7,1.4,1.2c0.3,0.5,0.5,1.1,0.5,1.9c0,0.7-0.2,1.3-0.5,1.8
				c-0.3,0.5-0.8,0.9-1.4,1.2c-0.6,0.3-1.4,0.4-2.2,0.4h-3.3l0.3-0.4v3.7h-0.7V89.5z M54.2,85.8l-0.3-0.4h3.3c1.1,0,1.9-0.2,2.5-0.7
				c0.6-0.5,0.9-1.2,0.9-2.1s-0.3-1.6-0.9-2.1c-0.6-0.5-1.4-0.7-2.5-0.7h-3.3l0.3-0.4V85.8z M60.5,89.5l-2.7-3.7h0.9l2.7,3.7H60.5z"
				/>
			<path class="st0" d="M66.9,89.5V79.2h0.6l7.3,9.4h-0.3v-9.4h0.7v10.3h-0.6l-7.3-9.4h0.3v9.4H66.9z"/>
			<path class="st0" d="M82.5,88.8h6.3v0.7h-7.1V79.2h6.9v0.7h-6.1C82.5,79.9,82.5,88.8,82.5,88.8z M82.5,83.9h5.6v0.7h-5.6V83.9z"
				/>
			<path class="st0" d="M94.6,89.5V79.2h3.7c0.9,0,1.6,0.1,2.2,0.4c0.6,0.3,1.1,0.7,1.4,1.2c0.3,0.5,0.5,1.1,0.5,1.9
				c0,0.7-0.2,1.3-0.5,1.8c-0.3,0.5-0.8,0.9-1.4,1.2c-0.6,0.3-1.4,0.4-2.2,0.4H95l0.3-0.4v3.7h-0.7V89.5z M95.3,85.8L95,85.4h3.3
				c1.1,0,1.9-0.2,2.5-0.7s0.9-1.2,0.9-2.1s-0.3-1.6-0.9-2.1s-1.4-0.7-2.5-0.7H95l0.3-0.4V85.8z M101.7,89.5L99,85.8h0.9l2.7,3.7
				H101.7z"/>
			<path class="st0" d="M108.1,89.5V79.2h0.7v9.6h5.9v0.7C114.7,89.5,108.1,89.5,108.1,89.5z"/>
			<path class="st0" d="M123.7,89.6c-0.8,0-1.5-0.1-2.1-0.4c-0.7-0.3-1.2-0.6-1.7-1.1s-0.9-1-1.1-1.7c-0.3-0.6-0.4-1.3-0.4-2.1
				s0.1-1.4,0.4-2.1c0.3-0.6,0.6-1.2,1.1-1.7s1.1-0.8,1.7-1.1c0.7-0.3,1.4-0.4,2.1-0.4c0.8,0,1.5,0.1,2.1,0.4
				c0.7,0.3,1.2,0.6,1.7,1.1c0.5,0.5,0.9,1,1.1,1.7c0.3,0.6,0.4,1.3,0.4,2.1s-0.1,1.4-0.4,2.1c-0.3,0.6-0.6,1.2-1.1,1.7
				c-0.5,0.5-1,0.8-1.7,1.1C125.2,89.4,124.5,89.6,123.7,89.6z M123.7,88.9c0.7,0,1.3-0.1,1.8-0.3c0.6-0.2,1-0.5,1.5-1
				s0.7-0.9,1-1.4c0.2-0.5,0.3-1.1,0.3-1.8c0-0.7-0.1-1.3-0.3-1.8c-0.2-0.5-0.6-1-1-1.4s-0.9-0.7-1.5-1c-0.6-0.2-1.2-0.3-1.8-0.3
				c-0.7,0-1.3,0.1-1.8,0.3c-0.6,0.2-1,0.5-1.5,1c-0.4,0.4-0.7,0.9-1,1.4c-0.2,0.5-0.3,1.1-0.3,1.8c0,0.6,0.1,1.2,0.3,1.8
				c0.2,0.5,0.6,1,1,1.4s0.9,0.7,1.5,1C122.5,88.8,123.1,88.9,123.7,88.9z"/>
			<path class="st0" d="M136.4,89.5v-9.6h-3.7v-0.7h8.1v0.7h-3.6v9.6H136.4z"/>
			<path class="st0" d="M148.5,89.5l-4.6-10.3h0.8l4.4,9.8h-0.5l4.4-9.8h0.8l-4.6,10.3H148.5z"/>
			<path class="st0" d="M158.4,89.5V79.2h0.7v10.3H158.4z"/>
			<path class="st0" d="M168.4,89.6c-0.8,0-1.5-0.1-2.2-0.4s-1.2-0.6-1.6-1l0.3-0.6c0.4,0.4,0.8,0.7,1.4,0.9
				c0.6,0.2,1.3,0.4,1.9,0.4c0.6,0,1.2-0.1,1.7-0.3c0.4-0.2,0.8-0.4,1-0.7c0.2-0.3,0.3-0.6,0.3-1s-0.1-0.8-0.4-1.1
				c-0.2-0.3-0.5-0.5-0.9-0.6c-0.4-0.2-0.8-0.3-1.2-0.4c-0.5-0.1-0.9-0.2-1.4-0.3c-0.5-0.1-0.9-0.3-1.3-0.5
				c-0.4-0.2-0.7-0.5-0.9-0.8c-0.2-0.3-0.3-0.8-0.3-1.3s0.1-0.9,0.4-1.4c0.3-0.4,0.7-0.7,1.2-1s1.2-0.4,2.1-0.4
				c0.6,0,1.1,0.1,1.7,0.2c0.6,0.2,1,0.4,1.4,0.7l-0.3,0.6c-0.4-0.3-0.9-0.5-1.4-0.7c-0.5-0.1-1-0.2-1.4-0.2c-0.7,0-1.2,0.1-1.6,0.3
				c-0.4,0.2-0.7,0.4-1,0.7s-0.3,0.7-0.3,1c0,0.4,0.1,0.8,0.3,1.1c0.2,0.3,0.5,0.5,0.9,0.6c0.4,0.2,0.8,0.3,1.3,0.4s0.9,0.2,1.4,0.3
				c0.5,0.1,0.9,0.3,1.2,0.5c0.4,0.2,0.7,0.5,0.9,0.8c0.2,0.3,0.4,0.8,0.4,1.3s-0.1,0.9-0.4,1.3s-0.7,0.7-1.2,1
				C169.9,89.4,169.2,89.6,168.4,89.6z"/>
			<path class="st0" d="M181.6,89.6c-1.3,0-2.3-0.4-3-1.1s-1.1-1.8-1.1-3.3v-5.9h0.7v5.9c0,1.3,0.3,2.2,0.9,2.8
				c0.6,0.6,1.4,0.9,2.5,0.9c1.1,0,1.9-0.3,2.5-0.9c0.6-0.6,0.9-1.6,0.9-2.8v-5.9h0.7v5.9c0,1.5-0.4,2.6-1.1,3.3
				C183.9,89.2,182.9,89.6,181.6,89.6z"/>
			<path class="st0" d="M190.2,89.5l4.7-10.3h0.7l4.7,10.3h-0.8l-4.5-9.8h0.3l-4.4,9.8H190.2z M191.9,86.6l0.3-0.6h6.1l0.2,0.6
				H191.9z"/>
			<path class="st0" d="M205.2,89.5V79.2h0.7v9.6h5.9v0.7C211.8,89.5,205.2,89.5,205.2,89.5z"/>
			<path class="st0" d="M219.3,89.6c-0.8,0-1.5-0.1-2.2-0.4s-1.2-0.6-1.6-1l0.3-0.6c0.4,0.4,0.8,0.7,1.4,0.9
				c0.6,0.2,1.3,0.4,1.9,0.4c0.7,0,1.2-0.1,1.7-0.3c0.4-0.2,0.8-0.4,1-0.7c0.2-0.3,0.3-0.6,0.3-1s-0.1-0.8-0.4-1.1
				c-0.2-0.3-0.5-0.5-0.9-0.6c-0.4-0.2-0.8-0.3-1.2-0.4c-0.5-0.1-0.9-0.2-1.4-0.3c-0.5-0.1-0.9-0.3-1.3-0.5
				c-0.4-0.2-0.7-0.5-0.9-0.8s-0.3-0.8-0.3-1.3s0.1-0.9,0.4-1.4c0.3-0.4,0.7-0.7,1.2-1s1.2-0.4,2.1-0.4c0.6,0,1.1,0.1,1.7,0.2
				c0.6,0.2,1,0.4,1.4,0.7l-0.3,0.6c-0.4-0.3-0.9-0.5-1.4-0.7c-0.5-0.1-1-0.2-1.4-0.2c-0.7,0-1.2,0.1-1.6,0.3
				c-0.4,0.2-0.7,0.4-1,0.7s-0.3,0.7-0.3,1c0,0.4,0.1,0.8,0.3,1.1c0.2,0.3,0.5,0.5,0.9,0.6c0.4,0.2,0.8,0.3,1.3,0.4s0.9,0.2,1.4,0.3
				c0.5,0.1,0.9,0.3,1.2,0.5c0.4,0.2,0.7,0.5,0.9,0.8s0.4,0.8,0.4,1.3s-0.1,0.9-0.4,1.3c-0.3,0.4-0.7,0.7-1.2,1
				C220.8,89.4,220.1,89.6,219.3,89.6z"/>
		</g>
	</g>
</g>
</svg>
