<?xml version="1.0" encoding="utf-8"?>
<svg version="1.1" id="Layer_1" x="0px" y="0px" viewBox="0 0 247.8 98.4" style="enable-background:new 0 0 247.8 98.4;" xmlns="http://www.w3.org/2000/svg">
  <defs>
    <clipPath clipPathUnits="userSpaceOnUse" id="clipPath16">
      <path d="M 0,1000 H 1000 V 0 H 0 Z" id="path14"/>
    </clipPath>
  </defs>
  <style type="text/css">
	.st0{fill:#231F20;}
</style>
  <g id="g8" transform="matrix(0.158023, 0, 0, -0.158023, 44.888489, 128.211487)" style="">
    <g id="g10">
      <g id="g12" clip-path="url(#clipPath16)">
        <g id="g18" transform="translate(170.0859,270.835)">
          <path d="M 0,0 C 0.652,0 0.956,-0.265 0.956,-0.832 V -4.539 C 0.956,-5.107 0.652,-5.41 0,-5.41 h -19.338 c -4.476,0 -5.78,-1.134 -5.78,-5.144 v -5.371 c 0,-4.01 1.304,-5.182 5.78,-5.182 H 0 c 0.652,0 0.956,-0.265 0.956,-0.833 v -3.707 c 0,-0.567 -0.304,-0.832 -0.956,-0.832 h -19.599 c -8.778,0 -12.168,2.724 -12.168,9.986 v 6.507 c 0,7.262 3.39,9.986 12.168,9.986 z" style="fill:#000000;fill-opacity:1;fill-rule:nonzero;stroke:none" id="path20"/>
        </g>
        <g id="g22" transform="translate(190.6772,254.759)">
          <path d="m 0,0 c 0,-3.972 1.304,-5.144 5.78,-5.144 h 12.907 c 4.476,0 5.779,1.172 5.779,5.144 v 5.673 c 0,3.972 -1.303,5.145 -5.779,5.145 H 5.78 C 1.304,10.818 0,9.645 0,5.673 Z m 18.947,16.076 c 8.822,0 12.168,-2.724 12.168,-9.986 v -6.507 c 0,-7.262 -3.346,-9.986 -12.168,-9.986 H 5.519 c -8.778,0 -12.168,2.724 -12.168,9.986 V 6.09 c 0,7.262 3.39,9.986 12.168,9.986 z" style="fill:#000000;fill-opacity:1;fill-rule:nonzero;stroke:none" id="path24"/>
        </g>
        <g id="g26" transform="translate(242.5127,257.3312)">
          <path d="m 0,0 h 16.644 c 2.955,0 4.042,1.097 4.042,3.366 v 1.589 c 0,2.27 -1.087,3.367 -4.042,3.367 H 0.565 C 0.174,8.322 0,8.171 0,7.868 Z m 17.991,13.504 c 6.649,0 9.343,-2.686 9.343,-7.793 V 3.555 c 0,-4.312 -1.912,-6.846 -6.475,-7.565 l 7.432,-8.02 c 0.26,-0.264 0.217,-0.945 -0.565,-0.945 H 22.12 c -0.739,0 -0.956,0.151 -1.217,0.491 l -6.866,7.868 H 0 v -7.527 c 0,-0.567 -0.304,-0.832 -0.956,-0.832 h -4.693 c -0.652,0 -1,0.265 -1,0.832 v 24.512 c 0,0.757 0.435,1.135 1.304,1.135 z" style="fill:#000000;fill-opacity:1;fill-rule:nonzero;stroke:none" id="path28"/>
        </g>
        <g id="g30" transform="translate(291.6118,270.835)">
          <path d="m 0,0 c 2.781,0 3.39,-0.303 5.041,-2.232 l 16.166,-18.46 c 0.13,-0.188 0.304,-0.264 0.565,-0.264 h 0.391 c 0.217,0 0.348,0.113 0.348,0.378 v 19.746 c 0,0.567 0.304,0.832 0.956,0.832 h 4.563 c 0.652,0 0.956,-0.265 0.956,-0.832 v -21.713 c 0,-3.063 -1.26,-3.934 -3.911,-3.934 h -3.738 c -2.65,0 -3.302,0.227 -5.041,2.232 L 0.087,-5.787 c -0.174,0.189 -0.304,0.264 -0.565,0.264 h -0.391 c -0.261,0 -0.348,-0.113 -0.348,-0.378 v -19.746 c 0,-0.567 -0.304,-0.832 -0.956,-0.832 h -4.563 c -0.652,0 -0.999,0.265 -0.999,0.832 v 21.713 c 0,3.064 1.26,3.934 3.911,3.934 z" style="fill:#000000;fill-opacity:1;fill-rule:nonzero;stroke:none" id="path32"/>
        </g>
        <g id="g34" transform="translate(366.002,270.835)">
          <path d="M 0,0 C 0.652,0 1,-0.265 1,-0.832 V -4.425 C 1,-4.993 0.652,-5.258 0,-5.258 h -18.991 c -4.519,0 -5.78,-1.173 -5.78,-5.145 v -0.377 h 24.554 c 0.652,0 0.956,-0.265 0.956,-0.833 v -2.988 c 0,-0.567 -0.304,-0.832 -0.956,-0.832 h -24.554 v -0.643 c 0,-3.972 1.261,-5.144 5.78,-5.144 H 0 c 0.652,0 1,-0.266 1,-0.834 v -3.593 c 0,-0.567 -0.348,-0.832 -1,-0.832 h -19.121 c -8.778,0 -12.168,2.724 -12.168,9.986 v 6.507 c 0,7.262 3.39,9.986 12.168,9.986 z" style="fill:#000000;fill-opacity:1;fill-rule:nonzero;stroke:none" id="path36"/>
        </g>
        <g id="g38" transform="translate(387.332,257.3312)">
          <path d="m 0,0 h 16.644 c 2.955,0 4.042,1.097 4.042,3.366 v 1.589 c 0,2.27 -1.087,3.367 -4.042,3.367 H 0.565 C 0.174,8.322 0,8.171 0,7.868 Z m 17.991,13.504 c 6.649,0 9.343,-2.686 9.343,-7.793 V 3.555 c 0,-4.312 -1.912,-6.846 -6.475,-7.565 l 7.432,-8.02 c 0.26,-0.264 0.217,-0.945 -0.565,-0.945 H 22.12 c -0.739,0 -0.956,0.151 -1.217,0.491 l -6.866,7.868 H 0 v -7.527 c 0,-0.567 -0.304,-0.832 -0.956,-0.832 h -4.693 c -0.652,0 -1,0.265 -1,0.832 v 24.512 c 0,0.757 0.435,1.135 1.304,1.135 z" style="fill:#000000;fill-opacity:1;fill-rule:nonzero;stroke:none" id="path40"/>
        </g>
        <g id="g42" transform="translate(433.9541,270.835)">
          <path d="m 0,0 c 0.652,0 0.956,-0.265 0.956,-0.832 v -15.093 c 0,-4.01 1.304,-5.182 5.78,-5.182 h 17.6 c 0.652,0 0.956,-0.265 0.956,-0.833 v -3.707 c 0,-0.567 -0.304,-0.832 -0.956,-0.832 H 6.475 c -8.778,0 -12.168,2.724 -12.168,9.986 v 15.661 c 0,0.567 0.348,0.832 1,0.832 z" style="fill:#000000;fill-opacity:1;fill-rule:nonzero;stroke:none" id="path44"/>
        </g>
        <g id="g46" transform="translate(478.1426,254.759)">
          <path d="m 0,0 c 0,-3.972 1.304,-5.144 5.78,-5.144 h 12.907 c 4.476,0 5.779,1.172 5.779,5.144 v 5.673 c 0,3.972 -1.303,5.145 -5.779,5.145 H 5.78 C 1.304,10.818 0,9.645 0,5.673 Z m 18.947,16.076 c 8.822,0 12.168,-2.724 12.168,-9.986 v -6.507 c 0,-7.262 -3.346,-9.986 -12.168,-9.986 H 5.519 c -8.778,0 -12.168,2.724 -12.168,9.986 V 6.09 c 0,7.262 3.39,9.986 12.168,9.986 z" style="fill:#000000;fill-opacity:1;fill-rule:nonzero;stroke:none" id="path48"/>
        </g>
        <g id="g50" transform="translate(555.5327,270.835)">
          <path d="M 0,0 C 0.651,0 0.999,-0.265 0.999,-0.832 V -4.539 C 0.999,-5.107 0.651,-5.41 0,-5.41 h -13.646 v -20.237 c 0,-0.567 -0.304,-0.832 -0.956,-0.832 h -4.737 c -0.651,0 -0.956,0.265 -0.956,0.832 V -5.41 H -33.94 c -0.652,0 -0.999,0.303 -0.999,0.871 v 3.707 c 0,0.567 0.347,0.832 0.999,0.832 z" style="fill:#000000;fill-opacity:1;fill-rule:nonzero;stroke:none" id="path52"/>
        </g>
        <g id="g54" transform="translate(573.0366,270.835)">
          <path d="m 0,0 c 0.565,0 0.783,-0.151 1,-0.491 l 12.732,-20.352 c 0.131,-0.226 0.262,-0.264 0.522,-0.264 h 0.218 c 0.217,0 0.347,0.038 0.477,0.264 l 12.56,20.352 C 27.727,-0.114 27.986,0 28.508,0 h 5.693 c 0.695,0 0.826,-0.378 0.522,-0.87 L 20.469,-23.604 c -1.434,-2.307 -2.739,-2.875 -4.563,-2.875 h -2.521 c -2.26,0 -3.52,0.568 -4.997,2.875 L -6.04,-0.87 C -6.344,-0.378 -6.214,0 -5.475,0 Z" style="fill:#000000;fill-opacity:1;fill-rule:nonzero;stroke:none" id="path56"/>
        </g>
        <g id="g58" transform="translate(625.8296,270.835)">
          <path d="m 0,0 c 0.651,0 0.955,-0.265 0.955,-0.832 v -24.815 c 0,-0.567 -0.304,-0.832 -0.955,-0.832 h -4.693 c -0.653,0 -1,0.265 -1,0.832 v 24.815 c 0,0.567 0.347,0.832 1,0.832 z" style="fill:#000000;fill-opacity:1;fill-rule:nonzero;stroke:none" id="path60"/>
        </g>
        <g id="g62" transform="translate(671.4546,270.835)">
          <path d="M 0,0 C 0.652,0 0.957,-0.265 0.957,-0.832 V -4.425 C 0.957,-4.993 0.652,-5.258 0,-5.258 h -21.771 c -1.652,0 -2.303,-0.794 -2.303,-2.119 v -1.285 c 0,-1.4 0.738,-2.118 2.26,-2.118 h 16.295 c 4.998,0 7.605,-2.346 7.605,-6.506 v -3.027 c 0,-3.669 -2.434,-6.166 -7.691,-6.166 h -24.076 c -0.651,0 -0.999,0.265 -0.999,0.832 v 3.593 c 0,0.568 0.348,0.834 0.999,0.834 h 22.816 c 1.65,0 2.303,0.793 2.303,2.118 v 1.55 c 0,1.399 -0.739,2.119 -2.26,2.119 h -16.297 c -4.997,0 -7.605,2.345 -7.605,6.506 v 2.761 c 0,3.669 2.434,6.166 7.693,6.166 z" style="fill:#000000;fill-opacity:1;fill-rule:nonzero;stroke:none" id="path64"/>
        </g>
        <g id="g66" transform="translate(692.7847,270.835)">
          <path d="m 0,0 c 0.652,0 0.957,-0.265 0.957,-0.832 v -15.093 c 0,-4.01 1.303,-5.182 5.779,-5.182 h 12.037 c 4.477,0 5.737,1.172 5.737,5.182 V -0.832 C 24.51,-0.265 24.814,0 25.467,0 h 4.736 c 0.652,0 0.956,-0.265 0.956,-0.832 v -15.661 c 0,-7.262 -3.347,-9.986 -12.168,-9.986 H 6.476 c -8.779,0 -12.168,2.724 -12.168,9.986 v 15.661 c 0,0.567 0.347,0.832 0.999,0.832 z" style="fill:#000000;fill-opacity:1;fill-rule:nonzero;stroke:none" id="path68"/>
        </g>
        <g id="g70" transform="translate(747.4468,254.1155)">
          <path d="m 0,0 h 14.949 l -6.91,11.084 c -0.13,0.188 -0.26,0.264 -0.477,0.264 H 7.301 c -0.217,0 -0.348,-0.076 -0.479,-0.264 z m 8.431,16.719 c 2.215,0 3.563,-0.605 4.997,-2.874 L 27.812,-8.889 c 0.305,-0.492 0.174,-0.87 -0.521,-0.87 h -5.52 c -0.564,0 -0.781,0.114 -0.999,0.491 l -3.085,4.88 H -2.738 l -2.998,-4.88 c -0.217,-0.377 -0.479,-0.491 -1,-0.491 h -5.649 c -0.739,0 -0.869,0.378 -0.565,0.87 L 1.304,13.845 c 1.434,2.269 2.737,2.874 4.563,2.874 z" style="fill:#000000;fill-opacity:1;fill-rule:nonzero;stroke:none" id="path72"/>
        </g>
        <g id="g74" transform="translate(791.5054,270.835)">
          <path d="m 0,0 c 0.651,0 0.955,-0.265 0.955,-0.832 v -15.093 c 0,-4.01 1.305,-5.182 5.78,-5.182 h 17.601 c 0.651,0 0.955,-0.265 0.955,-0.833 v -3.707 c 0,-0.567 -0.304,-0.832 -0.955,-0.832 H 6.475 c -8.779,0 -12.168,2.724 -12.168,9.986 v 15.661 c 0,0.567 0.347,0.832 1,0.832 z" style="fill:#000000;fill-opacity:1;fill-rule:nonzero;stroke:none" id="path76"/>
        </g>
        <g id="g78" transform="translate(859.5952,270.835)">
          <path d="M 0,0 C 0.651,0 0.955,-0.265 0.955,-0.832 V -4.425 C 0.955,-4.993 0.651,-5.258 0,-5.258 h -21.772 c -1.652,0 -2.304,-0.794 -2.304,-2.119 v -1.285 c 0,-1.4 0.739,-2.118 2.26,-2.118 H -5.52 c 4.999,0 7.606,-2.346 7.606,-6.506 v -3.027 c 0,-3.669 -2.434,-6.166 -7.692,-6.166 h -24.076 c -0.652,0 -1,0.265 -1,0.832 v 3.593 c 0,0.568 0.348,0.834 1,0.834 h 22.815 c 1.652,0 2.304,0.793 2.304,2.118 v 1.55 c 0,1.399 -0.74,2.119 -2.26,2.119 h -16.296 c -4.998,0 -7.606,2.345 -7.606,6.506 v 2.761 c 0,3.669 2.434,6.166 7.692,6.166 z" style="fill:#000000;fill-opacity:1;fill-rule:nonzero;stroke:none" id="path80"/>
        </g>
        <g id="g82" transform="translate(495.5325,755.6438)">
          <path d="M 0,0 C 7.5,0 11,-3.5 11,-11 L 9.962,-60.5 c 0,-7.5 -3.5,-11.5 -11,-11.5 h -210.537 c -65.463,0 -65.463,0 -65.463,-67.5 v -71 c 0,-68.5 0,-68.5 66.53,-67.5 h 209.5 c 7.5,0 11,-3.5 11,-11 l -0.03,-50 c 0,-7.5 -3.5,-11 -11,-11 h -208 c -113,-1 -140,17 -140,132 v 86 c 0,114 27,132 140,132 z" style="fill:#000000;fill-opacity:1;fill-rule:nonzero;stroke:none" id="path84"/>
        </g>
        <g id="g86" transform="translate(817.2981,596.4778)">
          <path d="m 0,0 -286.322,156.263 c -6.194,3.334 -10.958,1.905 -10.958,-5.717 V 95.928 c 0,-5.717 1.429,-8.575 6.193,-10.957 L -34.778,-52.712 c 2.859,-1.429 3.335,-2.858 3.335,-5.24 v -4.127 c 0,-2.858 -0.476,-4.287 -3.335,-5.717 l -247.859,-134.986 c -7.337,-3.996 -15.559,-6.09 -23.914,-6.09 h -134.765 c -67.731,0 -67.731,0 -67.5,67.5 V 62.114 c 0,4.995 -4.049,9.044 -9.045,9.044 h -54.142 c -4.995,0 -9.044,-4.049 -9.044,-9.044 v -210.986 c 0,-114 18,-132 139.731,-132 h 144.249 c 8.49,0 16.839,2.162 24.262,6.281 L 0,-123.199 c 29.061,16.198 36.207,30.014 36.207,54.787 v 18.389 C 36.207,-30.014 29.061,-15.722 0,0" style="fill:#000000;fill-opacity:1;fill-rule:nonzero;stroke:none" id="path88"/>
        </g>
      </g>
    </g>
  </g>
</svg>